# xmcd CD database file
#
# Track frame offsets:
#	150
#	11177
#	24257
#	38071
#	51319
#	66609
#	79898
#	95534
#	109955
#	123607
#	139071
#	149591
#	164162
#	177096
#
# Disc length: 2542 seconds
#
# Revision: 4
# Processed by: cddbd v1.4PL0 Copyright (c) Steve Scherf et al.
# Submitted via: CDex 1.51
#
DISCID=d309ec0e
DTITLE=Various Artist - Next Generation Swing Volume 2 CD 2
DYEAR=1999
DGENRE=Swing
TTITLE0=Frankie Capp Big Band - Why Don't You Do Right
TTITLE1=Jerry Gray and his Band - A String of Pearls
TTITLE2=Hank Levine and his Big Band - Moonglow
TTITLE3=Bob Florence and his Orchestra - I Let A Song Go Out of My Heart
TTITLE4=Mark Wilson and his Swingers - Jersey Bounce
TTITLE5=Jimmy Priddy and His Big Band - Swanee River
TTITLE6=Hollywood Swing Band - Bizet Has His Day
TTITLE7=Harry Betts and his Swing Band - Strictly Instrumental
TTITLE8=Dave Pell's Big Band All-Stars - It's Been a Long Long Time
TTITLE9=West Coast Swing Time Orchestra - Green Eyes
TTITLE10=Palladium Big Band - I Concentrate on You
TTITLE11=Johnny Ventura - Ciribiribin
TTITLE12=Alumni Jazz Band - One O'Clock Jump
TTITLE13=Zoot Suit Stompers - When the Saints Go Marching In
EXTD=Disk 2 of 2 YEAR: 1999
EXTT0=Frankie Capp Big Band
EXTT1=Jerry Bray and His Band
EXTT2=Hank Levine and his Big Band
EXTT3=Bob Florence and his Orchestra
EXTT4=Mark Wilson and his Swingers
EXTT5=Jimmy Priddy and his Big Band
EXTT6=The Hollywood Swing Band
EXTT7=Harry Betts and His Swing Band
EXTT8=Dave Pell's Big Band All Stars
EXTT9=West Coast Swing Time Orchestra
EXTT10=Palladium Big Band
EXTT11=Johnny Venture
EXTT12=The Alumny Jazz Band
EXTT13=Zoot Suit Jumpers\n
PLAYORDER=
